<svg xmlns="http://www.w3.org/2000/svg" width="133.14" height="23.361" viewBox="0 0 133.14 23.361">
  <path id="developed_by_mundiware" data-name="developed by mundiware" d="M4,45.153H0v9.8H4c3.147,0,5.269-2.016,5.269-4.9s-2.122-4.9-5.269-4.9m-.056,8.914H1.041V46.048H3.948a4.016,4.016,0,1,1,0,8.012m10.043-6.527a3.553,3.553,0,0,0-3.611,3.737,3.655,3.655,0,0,0,3.88,3.753,3.644,3.644,0,0,0,2.852-1.2l-.562-.645a2.92,2.92,0,0,1-2.263.967,2.733,2.733,0,0,1-2.908-2.563h6.182c0-.117.014-.224.014-.308a3.515,3.515,0,0,0-3.584-3.737m-2.612,3.3a2.626,2.626,0,0,1,5.241,0Zm13.038-3.248H25.4l-3.289,7.367H21.087l-3.27-7.367h1.041l2.768,6.275Zm4.767-.056a3.554,3.554,0,0,0-3.611,3.737,3.654,3.654,0,0,0,3.878,3.753,3.646,3.646,0,0,0,2.853-1.2l-.563-.645a2.92,2.92,0,0,1-2.262.967,2.732,2.732,0,0,1-2.908-2.563h6.181c0-.117.015-.224.015-.308a3.516,3.516,0,0,0-3.584-3.737m-2.612,3.3a2.626,2.626,0,0,1,5.24,0Zm7.958-6.275h1V54.959h-1Zm6.521,2.97A3.746,3.746,0,1,0,44.8,51.272a3.63,3.63,0,0,0-3.752-3.737m0,6.611a2.875,2.875,0,1,1,2.743-2.873,2.7,2.7,0,0,1-2.741,2.872m9.32-6.611a3.223,3.223,0,0,0-2.852,1.518V47.591h-.956V57.675h1v-4.1a3.23,3.23,0,0,0,2.81,1.456,3.746,3.746,0,1,0,0-7.493M50.3,54.145a2.874,2.874,0,1,1,2.754-2.872A2.7,2.7,0,0,1,50.3,54.145m8.379-6.611a3.553,3.553,0,0,0-3.611,3.737A3.911,3.911,0,0,0,61.8,53.82l-.564-.645a2.92,2.92,0,0,1-2.261.967,2.734,2.734,0,0,1-2.909-2.563h6.175c0-.117.014-.224.014-.308a3.515,3.515,0,0,0-3.583-3.737m-2.614,3.3a2.626,2.626,0,0,1,5.241,0Zm13.71-1.846a3.234,3.234,0,0,0-2.812-1.456,3.748,3.748,0,0,0,0,7.493A3.2,3.2,0,0,0,69.815,53.5v1.456h.955V44.565h-1Zm-2.727,5.155a2.875,2.875,0,1,1,2.74-2.872,2.7,2.7,0,0,1-2.74,2.872m13.439-6.611a3.228,3.228,0,0,0-2.809,1.456V44.566h-1V54.96h.956V53.5a3.2,3.2,0,0,0,2.852,1.526,3.746,3.746,0,1,0,0-7.493m-.069,6.611a2.874,2.874,0,1,1,2.754-2.872,2.7,2.7,0,0,1-2.754,2.872m10.528-6.554h.983l-3.7,8.249c-.618,1.442-1.4,1.9-2.452,1.9a2.528,2.528,0,0,1-1.8-.673l.467-.742a1.847,1.847,0,0,0,1.35.561c.66,0,1.109-.308,1.53-1.233l.325-.714-3.3-7.357h1.041l2.783,6.261Zm26.129,9.855c.025.012.077.047.077.047v4.472c-1.869-.6-12.41-4.023-12.8-4.176a1.726,1.726,0,0,1-.214-.106l5.638-1.83,1.243-.408Zm-6.059-12.32-6.883-2.236a1.908,1.908,0,0,1,.214-.106c.373-.147,10.948-3.586,12.8-4.176v4.438a.234.234,0,0,1-.083.077c-.176.064-4.244,1.41-6.049,2m-7.156,2.633V43.582a1.221,1.221,0,0,1,.028-.277l7.1,2.3c3.6,1.178,5.511,1.8,5.664,1.869a.818.818,0,0,1,.39.253c-1.081.543-3.693,1.433-6.32,2.312-2.5-.831-5.048-1.676-6.64-2.188l-.144-.046c-.029-.018-.071-.047-.071-.047m5.754,7.632-5.754,1.869V52.832l.089-.089c.893-.271,10.67-3.345,13.2-4.524l-.048.082v4.064a.632.632,0,0,1-.5.731c-.178.076-2.66.885-6.994,2.295m17.5.467,5.629,1.829a1.1,1.1,0,0,1-.214.106c-.378.153-10.937,3.557-12.806,4.176V57.492s.053-.035.077-.047l6.073-2Zm6.014-12.809h0l-.009.006-.006-.006h.023Zm-13.313.082a.35.35,0,0,1-.095-.081V38.613c1.846.59,12.428,4.029,12.795,4.176a1.167,1.167,0,0,1,.214.106l-6.86,2.236ZM133,47.759l.025.006s-.041.029-.071.047l-.141.041c-1.592.513-4.142,1.357-6.646,2.188-2.622-.879-5.232-1.769-6.314-2.312a.767.767,0,0,1,.39-.253c.153-.065,2.061-.69,5.658-1.868l7.1-2.3a1.213,1.213,0,0,1,0,.277Zm-.076,4.991.089.089v4.129a.958.958,0,0,1,0,.2v.106l-5.753-1.869c-4.335-1.41-6.818-2.219-7-2.295a.631.631,0,0,1-.552-.7l.007-.046V48.22c2.533,1.179,12.3,4.253,13.2,4.524" transform="translate(0 -38.607)" fill="#fff"/>
</svg>
