<svg xmlns="http://www.w3.org/2000/svg" width="135.469" height="28.027" viewBox="0 0 135.469 28.027">
  <path id="designed_by_golab" data-name="designed by golab" d="M6.425,8.875H2.454v9.81H6.425a4.828,4.828,0,0,0,5.225-4.9,4.829,4.829,0,0,0-5.225-4.9m-.056,8.908H3.484V9.777H6.369a3.92,3.92,0,0,1,4.263,4,3.92,3.92,0,0,1-4.263,4m9.952-6.526A3.54,3.54,0,0,0,12.741,15a3.638,3.638,0,0,0,3.844,3.753,3.6,3.6,0,0,0,2.828-1.205l-.557-.643a2.885,2.885,0,0,1-2.243.967A2.718,2.718,0,0,1,13.73,15.3h6.128c0-.117.015-.223.015-.307a3.5,3.5,0,0,0-3.553-3.737m-2.59,3.3a2.6,2.6,0,0,1,5.2,0Zm12.875,2.087c0,1.274-1.114,2.1-3.022,2.1a4.862,4.862,0,0,1-2.98-.911l.445-.785a4.4,4.4,0,0,0,2.605.827c1.393,0,1.963-.476,1.963-1.2,0-1.919-4.751-.406-4.751-3.32,0-1.2,1.032-2.1,2.9-2.1a4.947,4.947,0,0,1,2.593.686l-.432.8a3.743,3.743,0,0,0-2.16-.631c-1.323,0-1.908.517-1.908,1.219,0,1.985,4.751.489,4.751,3.319m2.776-7.676a.725.725,0,1,1-.725-.686.7.7,0,0,1,.725.686M28.158,11.3h.989v7.381h-.989Zm9.3,1.425a3.3,3.3,0,0,0-2.9-1.467,3.572,3.572,0,1,0,0,7.142,3.291,3.291,0,0,0,2.861-1.428v.934c0,1.819-.85,2.674-2.7,2.674a4.341,4.341,0,0,1-2.885-1.008l-.5.756a5.089,5.089,0,0,0,3.412,1.135c2.424,0,3.665-1.149,3.665-3.684V11.317h-.949Zm-2.8,4.788a2.626,2.626,0,0,1-2.771-2.7,2.781,2.781,0,0,1,5.558,0,2.638,2.638,0,0,1-2.786,2.7m12.989-3.11v4.278h-.989V14.511a2.052,2.052,0,0,0-2.2-2.353,2.409,2.409,0,0,0-2.569,2.66v3.867H40.9V11.317h.949v1.358a3.071,3.071,0,0,1,2.785-1.413,2.812,2.812,0,0,1,3.008,3.153m5.284-3.153A3.538,3.538,0,0,0,49.348,15a3.869,3.869,0,0,0,6.673,2.548l-.558-.643a2.882,2.882,0,0,1-2.242.967A2.719,2.719,0,0,1,50.336,15.3h6.137c0-.117.014-.223.014-.307a3.5,3.5,0,0,0-3.551-3.737m-2.591,3.3a2.6,2.6,0,0,1,5.2,0Zm13.591-1.844a3.194,3.194,0,0,0-2.791-1.456A3.554,3.554,0,0,0,57.495,15a3.565,3.565,0,0,0,3.649,3.756,3.173,3.173,0,0,0,2.83-1.526v1.456h.947V8.291h-.986Zm-2.7,5.155A2.686,2.686,0,0,1,58.5,15a2.727,2.727,0,1,1,5.447,0,2.686,2.686,0,0,1-2.716,2.872m13.325-6.611a3.193,3.193,0,0,0-2.785,1.456V8.291h-.989V18.685h.947V17.229a3.171,3.171,0,0,0,2.828,1.526A3.567,3.567,0,0,0,78.211,15a3.555,3.555,0,0,0-3.651-3.737m-.07,6.611A2.686,2.686,0,0,1,71.76,15a2.734,2.734,0,1,1,5.462,0,2.7,2.7,0,0,1-2.73,2.872M84.93,11.32H85.9L82.24,19.57c-.612,1.442-1.393,1.9-2.436,1.9a2.5,2.5,0,0,1-1.784-.674l.46-.74a1.826,1.826,0,0,0,1.337.559c.655,0,1.1-.307,1.518-1.232l.321-.715-3.27-7.357h1.031l2.758,6.262Zm20.63,8.525h-2.184c-1.431-.2-1.733-.662-1.733-1.177a1.208,1.208,0,0,1,.6-1.007,6.144,6.144,0,0,0,1.682.2c3.59,0,5.749-1.961,5.749-4.683a4.959,4.959,0,0,0-2.737-4.389,10.345,10.345,0,0,0-1.626-.564A8,8,0,0,0,103.705,8c-3.461,0-5.9,1.985-5.9,5a4.062,4.062,0,0,0,2.513,3.923A3.109,3.109,0,0,0,98.636,19.5c0,1.445,1.2,2.67,4.065,2.72h2.156c1.582-.05,2.412.584,2.412,1.593,0,1.134-.8,1.869-3.563,1.869-3.139-.049-3.466-1.1-3.466-2.5l-2.97,1.758h0c.451,1.99,2.132,3.095,6.348,3.095,4.671,0,7.106-1.666,7.106-4.438,0-2.278-2.037-3.948-5.172-3.751m-4.3-7.266a2.4,2.4,0,0,1,2.5-2.3,2.325,2.325,0,0,1,2.581,2.645,2.453,2.453,0,0,1,.018.452,2.551,2.551,0,1,1-5.084-.423,2.442,2.442,0,0,1-.013-.38m.013.374v.006h0ZM135.611,2.28a6.4,6.4,0,0,0-1.531.86V0l-1,.117v8h.877l.1-.612a2.038,2.038,0,0,0,1.558.759c1.431,0,2.31-1.226,2.31-2.991,0-1.913-.9-2.992-2.31-2.992m-.228,5.172a1.635,1.635,0,0,1-1.306-.76V3.971a1.671,1.671,0,0,1,1.38-.907c.806,0,1.357.564,1.357,2.207,0,1.545-.577,2.181-1.431,2.181m-4.125-.66V4.169c0-1.178-.625-1.89-2.032-1.89a5.757,5.757,0,0,0-2.036.394l.252.735a5.523,5.523,0,0,1,1.582-.318c.8,0,1.23.319,1.23,1.128v.42h-.9c-1.635,0-2.586.663-2.586,1.89a1.958,1.958,0,0,0,.008.234,1.705,1.705,0,0,0,1.869,1.5,2.011,2.011,0,0,0,1.737-.855,1.182,1.182,0,0,0,1.128.855l.252-.711a.673.673,0,0,1-.5-.76m-1-.173a1.532,1.532,0,0,1-1.375.883.874.874,0,0,1-.241,0,.907.907,0,0,1-.764-1.028h0c0-.784.524-1.177,1.6-1.177h.779Zm-11.6,1.449c-4.217,0-6.7,2.844-6.7,7.209v-.006c0,4.561,2.386,7.405,6.853,7.405s6.878-2.694,6.878-7.474-2.336-7.134-7.029-7.134m3.892,2.109-.426,2.329a1.466,1.466,0,0,0-.051.59,5.544,5.544,0,0,1,.4,2.181c0,2.672-1.383,4.168-3.667,4.168s-3.665-1.593-3.665-4.119h0c0-2.427,1.332-4.021,3.59-4.021.2,0,.376.023.55.023a1.127,1.127,0,0,0,.225.023.1.1,0,0,0,.075.023,2.113,2.113,0,0,0,.4,0,1.992,1.992,0,0,0,.426-.22l1.935-1.128s.1-.072.174-.023c.048.023.023.171.023.171m2.936-2.818.55.467a2.3,2.3,0,0,1-1.156.44c-.753,0-1.155-.443-1.155-1.278h0V.117l1-.117V6.963c0,.318.1.467.376.467a.953.953,0,0,0,.374-.072" transform="translate(-2.454)" fill="#fff"/>
</svg>
