<svg xmlns="http://www.w3.org/2000/svg" width="22.222" height="22.217" viewBox="0 0 22.222 22.217">
  <path id="instagram" d="M11.108,7.65a5.7,5.7,0,1,0,5.7,5.7A5.687,5.687,0,0,0,11.108,7.65Zm0,9.4a3.7,3.7,0,1,1,3.7-3.7A3.71,3.71,0,0,1,11.108,17.05Zm7.258-9.633a1.329,1.329,0,1,1-1.329-1.329A1.326,1.326,0,0,1,18.366,7.417Zm3.773,1.348A6.575,6.575,0,0,0,20.344,4.11a6.618,6.618,0,0,0-4.655-1.795c-1.834-.1-7.332-.1-9.167,0a6.609,6.609,0,0,0-4.655,1.79A6.6,6.6,0,0,0,.073,8.761c-.1,1.834-.1,7.332,0,9.167a6.575,6.575,0,0,0,1.795,4.655,6.627,6.627,0,0,0,4.655,1.795c1.834.1,7.332.1,9.167,0a6.575,6.575,0,0,0,4.655-1.795,6.618,6.618,0,0,0,1.795-4.655c.1-1.834.1-7.327,0-9.162ZM19.769,19.9a3.749,3.749,0,0,1-2.112,2.112c-1.462.58-4.933.446-6.549.446s-5.091.129-6.549-.446A3.749,3.749,0,0,1,2.447,19.9C1.867,18.433,2,14.962,2,13.346S1.872,8.255,2.447,6.8A3.749,3.749,0,0,1,4.559,4.685c1.462-.58,4.933-.446,6.549-.446s5.091-.129,6.549.446A3.749,3.749,0,0,1,19.769,6.8c.58,1.462.446,4.933.446,6.549S20.349,18.438,19.769,19.9Z" transform="translate(0.005 -2.238)" fill="#fff"/>
</svg>
