<svg xmlns="http://www.w3.org/2000/svg" width="66.316" height="55.746" viewBox="0 0 66.316 55.746">
  <g id="_7123018_news_google_icon" data-name="7123018_news_google_icon" transform="translate(-15.738 -38.918) rotate(7)">
    <path id="Caminho_623" data-name="Caminho 623" d="M82.165,69.265a1.554,1.554,0,0,1-1.554,1.583H47.354A1.554,1.554,0,0,1,45.8,69.265V36.083A1.554,1.554,0,0,1,47.354,34.5H80.611a1.554,1.554,0,0,1,1.554,1.583V69.265Z" transform="translate(-7.437)" fill="#34a853"/>
    <path id="Caminho_624" data-name="Caminho 624" d="M58.662,70.948A1.6,1.6,0,0,0,59.675,72.9l31.346,8.359a1.559,1.559,0,0,0,1.836-1.131l7.409-27.34a1.6,1.6,0,0,0-1.013-1.948L67.907,42.477a1.559,1.559,0,0,0-1.836,1.131Z" transform="translate(-12.809 -2.911)" fill="#e53935"/>
    <path id="Caminho_625" data-name="Caminho 625" d="M71.229,66.127a1.55,1.55,0,0,1-.823,2.012L37.35,80.087a1.621,1.621,0,0,1-1.963-1.006L25.635,52.418a1.55,1.55,0,0,1,.823-2.012L59.514,38.458a1.621,1.621,0,0,1,1.963,1.006Z" transform="translate(0 -1.426)" fill="#fbbc04"/>
    <path id="Caminho_626" data-name="Caminho 626" d="M25.762,52.9a1.565,1.565,0,0,1,.823-2.026L59.641,38.839a1.54,1.54,0,0,1,1.9.95l-.127-.317a1.619,1.619,0,0,0-1.963-1.013l-32.992,12.1a1.541,1.541,0,0,0-.823,2.026l9.752,26.787h0Z" transform="translate(0 -1.426)" fill="#fff" opacity="0.2"/>
    <path id="Caminho_627" data-name="Caminho 627" d="M84.564,92.279A1.557,1.557,0,0,1,83,93.862H38.361A1.557,1.557,0,0,1,36.8,92.279v-34.2A1.557,1.557,0,0,1,38.361,56.5h44.58A1.557,1.557,0,0,1,84.5,58.083v34.2Z" transform="translate(-4.136 -8.362)" fill="#4285f4"/>
    <path id="Caminho_628" data-name="Caminho 628" d="M91.752,75.746H78.2V72.2H91.752a.7.7,0,0,1,.7.7V75.05A.7.7,0,0,1,91.752,75.746Z" transform="translate(-19.787 -13.973)" fill="#fff"/>
    <path id="Caminho_629" data-name="Caminho 629" d="M91.752,97.146H78.2V93.6H91.752a.7.7,0,0,1,.7.7V96.45A.7.7,0,0,1,91.752,97.146Z" transform="translate(-19.787 -21.905)" fill="#fff"/>
    <path id="Caminho_630" data-name="Caminho 630" d="M93.9,86.446H78.2V82.9H93.9a.7.7,0,0,1,.7.7V85.75A.7.7,0,0,1,93.9,86.446Z" transform="translate(-19.809 -17.939)" fill="#fff"/>
    <path id="Caminho_631" data-name="Caminho 631" d="M54.186,79.219v3.23h4.623c-.38,1.963-2.09,3.356-4.623,3.356a5.194,5.194,0,0,1,0-10.385,4.755,4.755,0,0,1,3.293,1.266h0l2.47-2.47A8.1,8.1,0,0,0,54.249,72a8.549,8.549,0,0,0,0,17.1c4.876.127,8.106-3.356,8.106-8.232a14.41,14.41,0,0,0-.127-1.646Z" transform="translate(-7.589 -13.957)" fill="#fff"/>
  </g>
</svg>
