<svg xmlns="http://www.w3.org/2000/svg" width="20" height="14" viewBox="0 0 20 14">
  <path id="youtube-_168_" data-name="youtube-[#168]" d="M251.988,7291.586v-5.617c1.993.939,3.536,1.849,5.36,2.818-1.5.84-3.367,1.77-5.36,2.8m11.1-8.406a2.621,2.621,0,0,0-1.553-.92,108.814,108.814,0,0,0-15.1,0,2.64,2.64,0,0,0-1.328.67c-1.611,1.5-1.106,9.517-.718,10.815a2.909,2.909,0,0,0,.641,1.24,2.6,2.6,0,0,0,1.35.7,95.286,95.286,0,0,0,15.122.05,2.658,2.658,0,0,0,1.39-.72c1.49-1.489,1.388-9.956.2-11.835" transform="translate(-244 -7281.998)" fill-rule="evenodd"/>
</svg>
